<?xml version="1.0"?>
<svg xmlns="http://www.w3.org/2000/svg" height="512px" viewBox="0 -5 387.74528 387" width="512px"><path d="m380.917969 343.046875h-47.785157c-3.769531 0-6.828124-3.050781-6.828124-6.824219 0-33.882812-27.5625-61.441406-61.4375-61.441406-33.878907 0-61.441407 27.558594-61.441407 61.441406 0 3.773438-3.058593 6.824219-6.828125 6.824219h-81.917968c-3.769532 0-6.828126-3.050781-6.828126-6.824219 0-3.773437 3.058594-6.828125 6.828126-6.828125h75.398437c3.460937-38.222656 35.679687-68.265625 74.789063-68.265625 39.105468 0 71.324218 30.042969 74.785156 68.265625h41.265625c3.769531 0 6.828125 3.054688 6.828125 6.828125 0 3.773438-3.058594 6.824219-6.828125 6.824219zm0 0" fill="#FFFFFF"/><path d="m245.179688 304.382812c0-.566406.375-.941406.9375-.941406h23.746093c13.515625 0 19.898438 6.753906 19.898438 16.984375 0 7.226563-3.378907 11.355469-7.414063 13.515625v.1875c3.941406 1.503906 8.539063 6.570313 8.539063 14.359375 0 12.671875-7.976563 18.773438-21.964844 18.773438h-22.804687c-.5625 0-.9375-.375-.9375-.941407zm24.402343 25.617188c5.632813 0 9.101563-3.378906 9.101563-8.351562 0-5.066407-3.46875-8.445313-9.101563-8.445313h-12.765625c-.375 0-.5625.183594-.5625.558594v15.679687c0 .375.1875.558594.5625.558594zm-12.765625 27.5h13.328125c6.199219 0 9.667969-3.566406 9.667969-8.917969 0-5.253906-3.46875-8.820312-9.667969-8.820312h-13.328125c-.375 0-.5625.183593-.5625.566406v16.605469c0 .382812.1875.566406.5625.566406zm0 0" fill="#FFFFFF"/><path d="m268.277344 308.914062c-1.882813 0-3.410156-1.527343-3.410156-3.414062v-6.824219c0-1.886719 1.527343-3.414062 3.410156-3.414062 1.886718 0 3.414062 1.527343 3.414062 3.414062v6.824219c0 1.886719-1.527344 3.414062-3.414062 3.414062zm0 0" fill="#FFFFFF"/><path d="m268.277344 377.179688c-1.882813 0-3.410156-1.527344-3.410156-3.410157v-6.828125c0-1.886718 1.527343-3.414062 3.410156-3.414062 1.886718 0 3.414062 1.527344 3.414062 3.414062v6.828125c0 1.886719-1.527344 3.410157-3.414062 3.410157zm0 0" fill="#FFFFFF"/><path d="m285.714844 88.921875c-1.746094 0-3.496094-.667969-4.828125-2-2.664063-2.667969-2.664063-6.988281 0-9.652344l7.082031-7.085937-9.652344-9.652344-7.789062 7.785156c-2.664063 2.664063-6.988282 2.664063-9.652344 0-2.664062-2.667968-2.664062-6.988281 0-9.652344l12.617188-12.617187c2.667968-2.664063 6.988281-2.664063 9.652343 0l19.308594 19.308594c2.664063 2.664062 2.664063 6.984375 0 9.652343l-11.914063 11.910157c-1.332031 1.335937-3.078124 2.003906-4.824218 2.003906zm0 0" fill="#FFFFFF"/><path d="m26.132812 348.503906c-1.746093 0-3.496093-.667968-4.828124-2l-19.304688-19.308594c-2.667969-2.664062-2.667969-6.984374 0-9.652343l189.429688-189.433594c2.664062-2.664063 6.988281-2.664063 9.652343 0l19.308594 19.304687c1.28125 1.28125 2 3.015626 2 4.828126s-.71875 3.546874-2 4.828124l-189.433594 189.433594c-1.332031 1.332032-3.078125 2-4.824219 2zm-9.652343-26.136718 9.652343 9.652343 179.777344-179.777343-9.65625-9.65625zm0 0" fill="#FFFFFF"/><path d="m339.785156 259.566406c-2.695312 0-5.183594-1.597656-6.269531-4.132812-16.167969-37.679688-40.609375-76.140625-70.90625-111.617188l-27.738281 27.738282c-2.558594 2.558593-7.09375 2.558593-9.652344 0l-48.269531-48.273438c-2.667969-2.664062-2.667969-6.988281 0-9.652344l27.734375-27.738281c-35.492188-30.308594-73.953125-54.75-111.617188-70.902344-2.828125-1.210937-4.496094-4.160156-4.074218-7.207031.421874-3.046875 2.824218-5.433594 5.875-5.832031 63.761718-8.402344 132.359374 17.140625 183.449218 68.230469 51.089844 51.09375 76.597656 119.675781 68.238282 183.445312-.398438 3.046875-2.789063 5.453125-5.832032 5.875-.316406.046875-.628906.066406-.9375.066406zm-76.8125-132.589844c.070313 0 .144532 0 .21875.003907 1.886719.0625 3.664063.894531 4.90625 2.3125 26.757813 30.449219 49.359375 63.269531 66.328125 96.140625-1.15625-51.664063-24.699219-104.527344-65.761719-145.597656-41.066406-41.0625-93.9375-64.601563-145.597656-65.761719 32.863282 16.960937 65.679688 39.570312 96.140625 66.328125 1.414063 1.246094 2.253907 3.019531 2.3125 4.90625.0625 1.886718-.664062 3.714844-1.996093 5.046875l-28.097657 28.101562 38.617188 38.617188 28.101562-28.097657c1.285157-1.28125 3.019531-2 4.828125-2zm0 0" fill="#FFFFFF"/><path d="m217.078125 370.355469h-170.667969c-3.769531 0-6.824218-3.054688-6.824218-6.828125 0-3.773438 3.054687-6.828125 6.824218-6.828125h170.667969c3.769531 0 6.828125 3.054687 6.828125 6.828125 0 3.773437-3.058594 6.828125-6.828125 6.828125zm0 0" fill="#FFFFFF"/></svg>
